<svg xmlns="http://www.w3.org/2000/svg" xmlns:xlink="http://www.w3.org/1999/xlink" width="48" viewBox="0 0 36 36.000001" height="48" preserveAspectRatio="xMidYMid meet" version="1.0" class="favicon"><defs><g/></defs><g fill="#272727" fill-opacity="1"><g transform="translate(1.725456, 25.591793)"><g><path d="M 4.40625 -9.3125 C 3.695312 -9.3125 3.09375 -9.554688 2.59375 -10.046875 C 2.101562 -10.546875 1.859375 -11.148438 1.859375 -11.859375 C 1.859375 -12.410156 2.019531 -12.953125 2.34375 -13.484375 C 2.675781 -14.015625 3.109375 -14.488281 3.640625 -14.90625 C 4.171875 -15.332031 4.765625 -15.6875 5.421875 -15.96875 C 6.085938 -16.257812 6.753906 -16.4375 7.421875 -16.5 C 6.828125 -16.414062 6.367188 -16.238281 6.046875 -15.96875 C 5.722656 -15.707031 5.5625 -15.398438 5.5625 -15.046875 C 5.5625 -14.804688 5.628906 -14.566406 5.765625 -14.328125 C 5.898438 -14.097656 6.066406 -13.863281 6.265625 -13.625 C 6.753906 -13.175781 7 -12.585938 7 -11.859375 C 7 -11.148438 6.742188 -10.546875 6.234375 -10.046875 C 5.722656 -9.554688 5.113281 -9.3125 4.40625 -9.3125 Z M 14.421875 -2.484375 C 14.421875 -2.085938 14.550781 -1.703125 14.8125 -1.328125 C 15.082031 -0.953125 15.40625 -0.726562 15.78125 -0.65625 L 10.078125 0.171875 L 10.015625 0.171875 C 9.835938 0.171875 9.691406 0.113281 9.578125 0 C 9.460938 -0.113281 9.40625 -0.257812 9.40625 -0.4375 L 9.40625 -10.015625 C 9.144531 -9.878906 8.820312 -9.710938 8.4375 -9.515625 C 8.050781 -9.316406 7.675781 -9.050781 7.3125 -8.71875 C 6.945312 -8.382812 6.625 -7.960938 6.34375 -7.453125 C 6.070312 -6.941406 5.898438 -6.300781 5.828125 -5.53125 C 5.765625 -4.738281 5.828125 -4.035156 6.015625 -3.421875 C 6.203125 -2.816406 6.472656 -2.328125 6.828125 -1.953125 C 7.179688 -1.578125 7.597656 -1.3125 8.078125 -1.15625 C 8.566406 -1 8.988281 -1.007812 9.34375 -1.1875 C 8.945312 -0.90625 8.414062 -0.609375 7.75 -0.296875 C 7.09375 0.015625 6.3125 0.171875 5.40625 0.171875 C 4.363281 0.171875 3.421875 -0.101562 2.578125 -0.65625 C 1.742188 -1.207031 1.207031 -1.953125 0.96875 -2.890625 C 0.695312 -3.835938 0.785156 -4.757812 1.234375 -5.65625 C 1.691406 -6.550781 2.382812 -7.285156 3.3125 -7.859375 C 3.800781 -8.140625 4.390625 -8.414062 5.078125 -8.6875 C 5.773438 -8.96875 6.515625 -9.238281 7.296875 -9.5 C 8.085938 -9.769531 8.867188 -10.035156 9.640625 -10.296875 C 10.410156 -10.566406 11.109375 -10.851562 11.734375 -11.15625 C 12.367188 -11.46875 12.890625 -11.800781 13.296875 -12.15625 C 13.710938 -12.507812 13.929688 -12.910156 13.953125 -13.359375 C 13.972656 -13.617188 13.921875 -13.894531 13.796875 -14.1875 C 13.679688 -14.488281 13.515625 -14.765625 13.296875 -15.015625 C 13.890625 -14.441406 14.253906 -13.78125 14.390625 -13.03125 C 14.410156 -12.9375 14.421875 -12.84375 14.421875 -12.75 C 14.421875 -12.664062 14.421875 -12.582031 14.421875 -12.5 Z M 14.421875 -2.484375 "/></g></g></g><g fill="#272727" fill-opacity="1"><g transform="translate(16.008876, 25.591793)"><g><path d="M 8.390625 -16.609375 C 8.160156 -16.554688 7.894531 -16.347656 7.59375 -15.984375 C 7.300781 -15.617188 7.019531 -15.140625 6.75 -14.546875 C 6.488281 -13.953125 6.265625 -13.257812 6.078125 -12.46875 C 5.890625 -11.6875 5.796875 -10.851562 5.796875 -9.96875 C 5.796875 -8.863281 5.9375 -7.828125 6.21875 -6.859375 C 6.507812 -5.890625 6.90625 -5.039062 7.40625 -4.3125 C 7.90625 -3.582031 8.484375 -3.003906 9.140625 -2.578125 C 9.804688 -2.160156 10.515625 -1.953125 11.265625 -1.953125 C 11.910156 -1.953125 12.539062 -2.113281 13.15625 -2.4375 C 13.769531 -2.757812 14.3125 -3.207031 14.78125 -3.78125 C 14.113281 -2.582031 13.21875 -1.625 12.09375 -0.90625 C 10.96875 -0.1875 9.734375 0.171875 8.390625 0.171875 C 7.347656 0.171875 6.367188 -0.046875 5.453125 -0.484375 C 4.535156 -0.929688 3.734375 -1.53125 3.046875 -2.28125 C 2.359375 -3.03125 1.816406 -3.914062 1.421875 -4.9375 C 1.023438 -5.957031 0.828125 -7.050781 0.828125 -8.21875 C 0.828125 -9.363281 1.023438 -10.453125 1.421875 -11.484375 C 1.816406 -12.515625 2.359375 -13.40625 3.046875 -14.15625 C 3.734375 -14.90625 4.535156 -15.5 5.453125 -15.9375 C 6.367188 -16.382812 7.347656 -16.609375 8.390625 -16.609375 Z M 8.953125 -16.609375 C 9.742188 -16.535156 10.492188 -16.34375 11.203125 -16.03125 C 11.910156 -15.726562 12.53125 -15.351562 13.0625 -14.90625 C 13.59375 -14.46875 14.007812 -13.984375 14.3125 -13.453125 C 14.625 -12.921875 14.78125 -12.414062 14.78125 -11.9375 C 14.78125 -11.226562 14.523438 -10.625 14.015625 -10.125 C 13.503906 -9.625 12.898438 -9.375 12.203125 -9.375 C 11.492188 -9.375 10.890625 -9.625 10.390625 -10.125 C 9.890625 -10.625 9.640625 -11.226562 9.640625 -11.9375 C 9.640625 -12.613281 9.875 -13.207031 10.34375 -13.71875 C 10.5625 -13.9375 10.734375 -14.160156 10.859375 -14.390625 C 10.992188 -14.628906 11.0625 -14.867188 11.0625 -15.109375 C 11.0625 -15.328125 10.992188 -15.53125 10.859375 -15.71875 C 10.734375 -15.90625 10.566406 -16.0625 10.359375 -16.1875 C 10.148438 -16.3125 9.914062 -16.40625 9.65625 -16.46875 C 9.40625 -16.539062 9.171875 -16.585938 8.953125 -16.609375 Z M 8.953125 -16.609375 "/></g></g></g><g fill="#272727" fill-opacity="1"><g transform="translate(29.298085, 25.591793)"><g><path d="M 4.140625 -1.65625 C 4.140625 -1.195312 3.976562 -0.804688 3.65625 -0.484375 C 3.34375 -0.160156 2.953125 0 2.484375 0 C 2.023438 0 1.632812 -0.160156 1.3125 -0.484375 C 0.988281 -0.804688 0.828125 -1.195312 0.828125 -1.65625 C 0.828125 -2.125 0.988281 -2.515625 1.3125 -2.828125 C 1.632812 -3.148438 2.023438 -3.3125 2.484375 -3.3125 C 2.953125 -3.3125 3.34375 -3.148438 3.65625 -2.828125 C 3.976562 -2.515625 4.140625 -2.125 4.140625 -1.65625 Z M 4.140625 -1.65625 "/></g></g></g></svg>